<svg xmlns="http://www.w3.org/2000/svg" width="1200" height="630" viewBox="0 0 1200 630">
  <defs>
    <pattern id="grid" width="42" height="42" patternUnits="userSpaceOnUse">
      <path d="M42 0H0V42" fill="none" stroke="#2c2c29" stroke-width="1"/>
    </pattern>
  </defs>
  <rect width="1200" height="630" fill="#11110f"/>
  <rect width="1200" height="630" fill="url(#grid)" opacity=".7"/>
  <rect x="58" y="58" width="1084" height="514" fill="none" stroke="#3a3a36"/>
  <g transform="translate(792 145) scale(1.32)">
    <path fill="#efede6" d="M24 220 116 32v140l-36 48H24Z"/>
    <path fill="#d9ff36" d="M136 38h57c24 0 43 18 43 41s-19 41-43 41h-57V38Zm0 100h57c24 0 43 18 43 41s-19 41-43 41h-57v-82Z"/>
  </g>
  <rect x="58" y="58" width="11" height="112" fill="#d9ff36"/>
  <text x="104" y="116" fill="#d9ff36" font-family="monospace" font-size="17" letter-spacing="4">PERSONAL AI WORKBENCH / 2026</text>
  <text x="104" y="258" fill="#efede6" font-family="Arial, sans-serif" font-size="86" font-weight="700" letter-spacing="-5">AgentBI</text>
  <text x="104" y="322" fill="#aaa79f" font-family="Arial, sans-serif" font-size="26">把模型、工具与工作流，放进同一个空间。</text>
  <line x1="104" y1="405" x2="648" y2="405" stroke="#3a3a36"/>
  <text x="104" y="452" fill="#efede6" font-family="monospace" font-size="18" letter-spacing="2">STUDIO  ·  LIVE  ·  TEST  ·  TOOLBOX</text>
  <text x="104" y="525" fill="#6f6d67" font-family="monospace" font-size="15" letter-spacing="2">ELYSIAREAL.ME</text>
</svg>
